<?xml version="1.0" encoding="UTF-8"?>
<svg id="Calque_1" data-name="Calque 1" xmlns="http://www.w3.org/2000/svg" version="1.1" viewBox="0 0 841.9 595.3">
  <defs>
    <style>
      .cls-1 {
        fill: #e73178;
      }

      .cls-1, .cls-2, .cls-3, .cls-4 {
        stroke-width: 0px;
      }

      .cls-2 {
        fill: #00a3a6;
      }

      .cls-3 {
        fill: #fff;
      }

      .cls-4 {
        fill: #e83278;
      }
    </style>
  </defs>
  <g>
    <ellipse class="cls-3" cx="254" cy="273.9" rx="45.8" ry="46.3"/>
    <path class="cls-2" d="M319.8,238.8c-12.5-23.8-37.2-40.1-65.7-40.1-41.1,0-74.3,33.7-74.3,75.2s33.3,75.2,74.3,75.2,53.3-16.3,65.7-40.1l-23.5-6.8c-9.1,13.8-24.6,23-42.2,23-28,0-50.6-22.9-50.6-51.2s22.7-51.2,50.6-51.2,33.2,9.1,42.2,23l23.5-6.8Z"/>
    <path class="cls-4" d="M251,266.8c.3-1.3-.4-2.5-1.6-2.9-1.3-.4-2.7.4-3.1,1.9.2-.1,1.4-.7,2.8-.3,1,.3,1.6,1,1.8,1.3Z"/>
    <path class="cls-4" d="M278.2,234.6c-3.6-2.2-7.7,1.8-7.7,1.8-6.7,6.1-7.9,10.8-7.7,14.1.3,6.3,5.1,9.9,4.2,15.5,0,0-.5,3.2-.9,4.8,0,0-1.2-.2-2.3.1.7-2.1,1-5,1-5,.8-6.1-3.6-9.4-4.3-14.6-.5-3.6.7-8.9,8.4-16.2,0,0,3.8-3.2.6-5-4.8-1.7-9.9-2.6-15.2-2.6-25.3,0-45.8,20.7-45.8,46.3s20.5,46.3,45.8,46.3,45.8-20.7,45.8-46.3-8.7-31.2-21.7-39.4ZM290.4,285.2c-1.6,1-2,1.8-2.5,3-.4.8-.2,1.2-.5,2.1-.3.9-1,1.1-1.9.9-.7-.1-1.6-1-2-1.5-.8-.9-3-1.9-8.1-3.2-2.9-.7-4.8-1.3-6.4-2.4s-2.9-2.5-3.6-3.4c.5,1.2,1.8,3.5,4.4,5.5,2.8,2.1,5.6,2.6,6.8,2.8.5.5,5.3,5.7,3.9,12.5-.9,4.4-3.9,6.9-4.6,7.5-.7.6-3.4,2.6-10.7,3-3.7.2-11.5.5-20.1-4-3.2-1.6-8.4-4.4-12.4-10.3-1.6-2.5-4.3-6.5-4.7-12-.2-3.2.5-5.2-.8-8.3-1-2.6-2.3-3.2-4-5.5-.4-.5-4.4-6.2-4.1-13.4,0-1.5.4-8.3,5.9-13.1,6.2-5.3,13.9-4,15.5-3.6,1,.2,7.7,1.7,12,8,.9,1.3,3.6,5.5,3.2,10.5-.4,3.7-1.6,5.8-1.6,5.8-2.2,3.7-.9,4.4-3.1,7.9-1.4,2.1-3.4,2.6-4.4,2.8-2.6.3-7.2-1.7-10.5.7-1.4,1-2.1,2.3-2.5,3.3.7-.9,1.9-2,3.7-2.6,2.8-1,5.4.2,7.7.3,1.5,0,3.8-.2,6.2-2.2,2.2-1.9,2.7-4.5,2.9-5.4,2.9,1.9,4.6,5,4.2,8-.6,4.5-5.7,6.4-6.3,6.6-1.8.7-3.4.8-6.7.9-2.9.1-4.6.4-5.5,1.7-.6.8-.7,1.8-.7,2.4.7-.9,1.1-1.6,2.8-2.2,1.6-.5,3.4-.4,5.9-.4,1.1,0,4.1,0,6.8-1.8.9-.6,2.8-2,4.2-5-.5,1.6-1.8,6.2,0,11.5,1.2,3.4,3.2,5.6,4.4,6.7-.9-1.5-2.2-3.9-3-7-1.4-5.3-.6-9.6-.2-12.2.7-3.6,1.2-6.1,3.2-7.2,1.6-.9,3.3-.6,5-.2,2.4.7,4.4,2.2,7,4.5,2.5,2.2,3.5,4.1,6,5.4,1.5.8,3.6,1.4,4.9,1.1,1.3-.3,3.7-1.4,5-1.5.8,0,1.3.8,1.2,1.6-.2,1.3-1.5,1.8-1.6,1.8Z"/>
  </g>
  <g>
    <path class="cls-2" d="M356.3,266.3c0,1-.6,1.6-1.6,1.6h-3c-1,0-1.6-.6-1.6-1.6v-8.7c0-3.6-1-5.7-5.2-5.7s-5.2,2.1-5.2,5.7v32.6c0,3.6,1,5.7,5.2,5.7s5.2-2.1,5.2-5.7v-8.7c0-1,.6-1.6,1.6-1.6h3c1,0,1.6.5,1.6,1.6v8.7c0,7-2.5,10.9-11.4,10.9s-11.4-3.8-11.4-10.9v-32.6c0-7,2.5-10.9,11.4-10.9s11.4,3.8,11.4,10.9v8.7Z"/>
    <path class="cls-2" d="M368.4,271.3h10.4v-22.7c0-1,.6-1.6,1.6-1.6h3c1,0,1.6.5,1.6,1.6v50.4c0,1-.6,1.6-1.6,1.6h-3c-1,0-1.6-.6-1.6-1.6v-22.6h-10.4v22.6c0,1-.6,1.6-1.6,1.6h-3c-1,0-1.6-.6-1.6-1.6v-50.4c0-1,.6-1.6,1.6-1.6h3c1,0,1.6.5,1.6,1.6v22.7Z"/>
    <path class="cls-2" d="M413.7,257.6v32.6c0,7-2.5,10.9-11.4,10.9s-11.4-3.8-11.4-10.9v-32.6c0-7,2.5-10.9,11.4-10.9s11.4,3.8,11.4,10.9ZM397.1,257.6v32.6c0,3.6,1,5.7,5.2,5.7s5.2-2.1,5.2-5.7v-32.6c0-3.6-1-5.7-5.2-5.7s-5.2,2.1-5.2,5.7Z"/>
    <path class="cls-2" d="M425.9,299.1c0,1-.6,1.6-1.6,1.6h-3c-1,0-1.6-.6-1.6-1.6v-50.4c0-1,.6-1.6,1.6-1.6h3c1,0,1.6.5,1.6,1.6v50.4Z"/>
    <path class="cls-2" d="M441.8,268l7.7,8.1c3.3,3.3,4.9,6.4,4.9,14.1s-2.5,10.9-11.4,10.9-11.3-3.8-11.3-10.9v-7c0-1,.5-1.6,1.6-1.6h3c1,0,1.6.6,1.6,1.6v7c0,3.6,1,5.7,5.2,5.7s5.3-2.1,5.3-5.7-.6-6.7-4-10.4l-7.7-8.1c-3.3-3.3-4.9-6.4-4.9-14.1s2.4-10.9,11.3-10.9,11.4,3.8,11.4,10.9v7c0,1-.5,1.6-1.6,1.6h-3c-1,0-1.6-.5-1.6-1.6v-7c0-3.6-1-5.7-5.3-5.7s-5.2,2.1-5.2,5.7.6,6.8,4,10.4Z"/>
    <path class="cls-2" d="M466.4,299.1c0,1-.6,1.6-1.6,1.6h-3c-1,0-1.6-.6-1.6-1.6v-50.4c0-1,.6-1.6,1.6-1.6h3c1,0,1.6.5,1.6,1.6v50.4Z"/>
    <path class="cls-2" d="M487.7,276.3l8.5,22.4c.4.9,0,2-1.3,2.1h-3.3c-.9,0-1.4-.4-1.6-1.1l-8.6-22.6h-2.9v22.1c0,1-.6,1.6-1.6,1.6h-3c-1,0-1.6-.6-1.6-1.6v-50.4c0-1,.6-1.6,1.6-1.6h8.3c9.7,0,12.3,4.2,12.3,11.8v6.2c0,5.9-1.4,9.8-6.8,11.1ZM482.2,271.8c5,0,6.1-2.4,6.1-6.7v-6.2c0-4.1-1.1-6.7-6.1-6.7h-3.7v19.5h3.7Z"/>
    <path class="cls-2" d="M520.9,295.5h12.1c1,0,1.6.5,1.6,1.6v2c0,1-.6,1.6-1.6,1.6h-16.7c-1,0-1.6-.6-1.6-1.6v-50.4c0-1,.6-1.6,1.6-1.6h3c1,0,1.6.5,1.6,1.6v46.9Z"/>
    <path class="cls-2" d="M555.3,299.2l-1.6-10.1h-10.3l-1.5,10.1c-.1,1-.7,1.5-1.6,1.5h-3.1c-1,0-1.6-.8-1.4-1.9l7.7-50.1c.1-1.1.7-1.6,1.8-1.6h6.7c1,0,1.6.5,1.7,1.6l7.7,50.1c.1,1.1-.4,1.9-1.4,1.9h-3.1c-.8,0-1.5-.5-1.6-1.5ZM544.2,283.9h8.9l-2.5-17.2-1.7-14.4h-.4l-1.7,14.4-2.6,17.2Z"/>
    <path class="cls-2" d="M583.5,248.6l4.8,32.5,1.6,14.4h.4l1.6-14.4,4.9-32.5c0-1,.7-1.5,1.6-1.5h3.1c1,0,1.6.7,1.4,1.9l-7.7,50.1c-.1,1.1-.7,1.6-1.7,1.6h-6.7c-1,0-1.6-.5-1.8-1.6l-7.7-50.1c-.1-1.1.4-1.9,1.4-1.9h3.1c.9,0,1.5.4,1.6,1.5Z"/>
    <path class="cls-2" d="M612.8,299.1c0,1-.6,1.6-1.6,1.6h-3c-1,0-1.6-.6-1.6-1.6v-50.4c0-1,.6-1.6,1.6-1.6h3c1,0,1.6.5,1.6,1.6v50.4Z"/>
    <path class="cls-2" d="M637.1,247.1c1,0,1.6.5,1.6,1.6v2c0,1-.6,1.6-1.6,1.6h-12.1v19h9.3c1,0,1.6.5,1.6,1.6v2c0,1-.6,1.6-1.6,1.6h-9.3v19h12.1c1,0,1.6.5,1.6,1.6v2c0,1-.6,1.6-1.6,1.6h-16.7c-1,0-1.6-.6-1.6-1.6v-50.4c0-1,.6-1.6,1.6-1.6h16.7Z"/>
  </g>
  <g>
    <path class="cls-1" d="M440.6,348.5h-6.2v-31.9h6.2v31.9Z"/>
    <path class="cls-1" d="M445.6,325.4c0-5.8,4.2-9.4,10.5-9.4s10.4,4.1,10.4,10.7h-6.2c0-3.4-1.7-5-4.3-5s-4.2,1.3-4.2,3.7c0,6.3,15.1,2.6,15.1,14s-4.3,9.7-10.8,9.7-10.9-4.2-10.9-11h6.2c0,3.7,1.9,5.3,4.7,5.3s4.6-1.2,4.6-3.8c0-6.1-15.1-2.7-15.1-14Z"/>
    <path class="cls-1" d="M489.3,322.6h-11.7v7.2h8.6v5.4h-8.6v7.2h11.7v6h-17.9v-31.9h17.9v6ZM478.4,313.2l-4.7-7.1h6.4l2.9,7.1h-4.6Z"/>
    <path class="cls-1" d="M494.2,348.5v-31.9h10.1c6.4,0,10.7,4.1,10.7,11.5v.9c0,4.9-2.1,8.2-5.6,9.8l5.4,9.7h-6.8l-4.3-8.2h-3.3v8.2h-6.2ZM500.4,322.6v11.8h3.1c2.7,0,5.3-1.2,5.3-5.4v-.9c0-4.4-2.4-5.5-5.3-5.5h-3.1Z"/>
    <path class="cls-1" d="M537.9,322.6h-11.7v7.2h8.6v5.4h-8.6v7.2h11.7v6h-17.9v-31.9h17.9v6Z"/>
  </g>
</svg>